<svg xmlns="http://www.w3.org/2000/svg" viewBox="0 0 800 220" role="img"><defs><linearGradient id="g" x2="1" y2="1"><stop stop-color="#EEF3F9"/><stop offset="1" stop-color="#DCE6EF"/></linearGradient><clipPath id="c"><path d="M0 56C146 18 222 77 347 47s220-29 453 13v160H0z"/></clipPath></defs><rect width="800" height="220" fill="url(#g)"/><g clip-path="url(#c)" stroke="#F8FAFC" stroke-opacity=".7" stroke-width="4"><path d="M-20 74C129 36 224 99 355 66s264-18 480 27v38C614 86 489 74 351 108S131 72-20 110z" fill="#2563EB" fill-opacity=".58"/><path d="M-20 110c151-38 240 1 371-2s263-22 484 23v36c-222-42-350-27-487 5s-220-2-368-26z" fill="#7C3AED" fill-opacity=".38"/><path d="M-20 146c149 25 233 58 368 26s265-47 487-5v55H-20z" fill="#F59E0B" fill-opacity=".5"/></g><g fill="none" stroke="#0D1F2D" stroke-opacity=".32"><path d="M152 35l-28 170M304 26l-17 187M480 24l16 185M665 41l37 168" stroke-width="3"/><path d="M80 188l91-62 67 29 83-73 88 44 94-78 89 52 108-55" stroke-width="5" stroke-linejoin="round"/></g><g fill="#0D9488" stroke="#F8FAFC" stroke-width="3"><circle cx="171" cy="126" r="8"/><circle cx="321" cy="82" r="8"/><circle cx="503" cy="48" r="8"/><circle cx="592" cy="100" r="8"/></g></svg>
