<svg xmlns="http://www.w3.org/2000/svg" width="64" height="64" viewBox="0 0 64 64"><g fill="none" stroke="#3B3122" stroke-opacity="0.34" stroke-width="1.5"><ellipse cx="11" cy="12" rx="6" ry="4" transform="rotate(-18 11 12)"/><ellipse cx="37" cy="8" rx="4.5" ry="3" transform="rotate(12 37 8)"/><ellipse cx="56" cy="18" rx="5" ry="3.5" transform="rotate(-8 56 18)"/><ellipse cx="22" cy="29" rx="5.5" ry="3.5" transform="rotate(24 22 29)"/><ellipse cx="47" cy="34" rx="4" ry="3" transform="rotate(-30 47 34)"/><ellipse cx="6" cy="38" rx="4" ry="2.8" transform="rotate(10 6 38)"/><ellipse cx="30" cy="50" rx="6" ry="4" transform="rotate(-14 30 50)"/><ellipse cx="56" cy="54" rx="4.5" ry="3" transform="rotate(20 56 54)"/><ellipse cx="12" cy="58" rx="4" ry="3" transform="rotate(-25 12 58)"/></g></svg>