<svg xmlns="http://www.w3.org/2000/svg" width="64" height="64" viewBox="0 0 64 64"><g fill="none" stroke="#3B3122" stroke-opacity="0.34" stroke-width="1.6" stroke-linecap="round"><path d="M0 0 H64"/><path d="M0 16 H64"/><path d="M0 32 H64"/><path d="M0 48 H64"/><path d="M0 64 H64"/><path d="M0 0 V16"/><path d="M32 0 V16"/><path d="M16 16 V32"/><path d="M48 16 V32"/><path d="M0 32 V48"/><path d="M32 32 V48"/><path d="M16 48 V64"/><path d="M48 48 V64"/><path d="M0 15 l14 -14" stroke-opacity="0.22"/><path d="M32 15 l14 -14" stroke-opacity="0.22"/><path d="M16 31 l14 -14" stroke-opacity="0.22"/><path d="M48 31 l14 -14" stroke-opacity="0.22"/><path d="M0 47 l14 -14" stroke-opacity="0.22"/><path d="M32 47 l14 -14" stroke-opacity="0.22"/><path d="M16 63 l14 -14" stroke-opacity="0.22"/><path d="M48 63 l14 -14" stroke-opacity="0.22"/></g></svg>